<svg width="31" height="27" viewBox="0 0 31 27" fill="none" xmlns="http://www.w3.org/2000/svg">
<path d="M26.1867 8.59838C26.0679 8.42668 25.9092 8.28634 25.7243 8.18939C25.5394 8.09243 25.3337 8.04174 25.1249 8.04167H7.47171L5.98113 4.46376C5.78568 3.99258 5.45473 3.59006 5.03023 3.30721C4.60574 3.02437 4.10681 2.87394 3.59671 2.87501H0.583252V5.45834H3.59671L9.72438 20.164C9.82253 20.3992 9.9881 20.6002 10.2003 20.7416C10.4124 20.8829 10.6617 20.9584 10.9166 20.9583H21.2499C21.7885 20.9583 22.2703 20.6238 22.4602 20.1213L26.3352 9.78801C26.4084 9.59247 26.4332 9.3821 26.4073 9.17492C26.3814 8.96773 26.3057 8.7699 26.1867 8.59838V8.59838ZM20.3548 18.375H11.7781L8.54896 10.625H23.261L20.3548 18.375Z" fill="#37B47E"/>
<path d="M11.5625 26.125C12.6326 26.125 13.5 25.2576 13.5 24.1875C13.5 23.1174 12.6326 22.25 11.5625 22.25C10.4924 22.25 9.625 23.1174 9.625 24.1875C9.625 25.2576 10.4924 26.125 11.5625 26.125Z" fill="#37B47E"/>
<path d="M20.6042 26.125C21.6743 26.125 22.5417 25.2576 22.5417 24.1875C22.5417 23.1174 21.6743 22.25 20.6042 22.25C19.5342 22.25 18.6667 23.1174 18.6667 24.1875C18.6667 25.2576 19.5342 26.125 20.6042 26.125Z" fill="#37B47E"/>
<circle cx="25.5" cy="5.5" r="5.5" fill="#37B47E"/>
</svg>
